HIERARCHY
ROOT root
{
	OFFSET 0.000000 0.000000 0.000000
	CHANNELS 6 Xposition Yposition Zposition Zrotation Yrotation Xrotation
	JOINT lhip
	{
		OFFSET 0.058581 -0.082280 -0.017664
		CHANNELS 3 Zrotation Yrotation Xrotation
		JOINT lknee
		{
			OFFSET 0.043451 -0.386469 0.008037
			CHANNELS 3 Zrotation Yrotation Xrotation
			JOINT lankle
			{
				OFFSET -0.014790 -0.426874 -0.037428
				CHANNELS 3 Zrotation Yrotation Xrotation
				JOINT ltoe
				{
					OFFSET 0.041054 -0.060286 0.122042
					CHANNELS 3 Zrotation Yrotation Xrotation
					End Site
					{
						OFFSET 0.000000 0.000000 0.000000
					}
				}
			}
		}
	}
	JOINT rhip
	{
		OFFSET -0.060310 -0.090513 -0.013543
		CHANNELS 3 Zrotation Yrotation Xrotation
		JOINT rknee
		{
			OFFSET -0.043257 -0.383688 -0.004843
			CHANNELS 3 Zrotation Yrotation Xrotation
			JOINT rankle
			{
				OFFSET 0.019056 -0.420046 -0.034562
				CHANNELS 3 Zrotation Yrotation Xrotation
				JOINT rtoe
				{
					OFFSET -0.034840 -0.062106 0.130323
					CHANNELS 3 Zrotation Yrotation Xrotation
					End Site
					{
						OFFSET 0.000000 0.000000 0.000000
					}
				}
			}
		}
	}
	JOINT lowerback
	{
		OFFSET 0.004439 0.124404 -0.038385
		CHANNELS 3 Zrotation Yrotation Xrotation
		JOINT upperback
		{
			OFFSET 0.004488 0.137956 0.026820
			CHANNELS 3 Zrotation Yrotation Xrotation
			JOINT chest
			{
				OFFSET -0.002265 0.056032 0.002855
				CHANNELS 3 Zrotation Yrotation Xrotation
				JOINT lowerneck
				{
					OFFSET -0.013390 0.211636 -0.033468
					CHANNELS 3 Zrotation Yrotation Xrotation
					JOINT upperneck
					{
						OFFSET 0.010113 0.088937 0.050410
						CHANNELS 3 Zrotation Yrotation Xrotation
						End Site
						{
							OFFSET 0.000000 0.000000 0.000000
						}
					}
				}
				JOINT lclavicle
				{
					OFFSET 0.071702 0.114000 -0.018898
					CHANNELS 3 Zrotation Yrotation Xrotation
					JOINT lshoulder
					{
						OFFSET 0.122921 0.045205 -0.019046
						CHANNELS 3 Zrotation Yrotation Xrotation
						JOINT lelbow
						{
							OFFSET 0.255332 -0.015649 -0.022946
							CHANNELS 3 Zrotation Yrotation Xrotation
							JOINT lwrist
							{
								OFFSET 0.265709 0.012698 -0.007375
								CHANNELS 3 Zrotation Yrotation Xrotation
								End Site
								{
									OFFSET 0.000000 0.000000 0.000000
								}
							}
						}
					}
				}
				JOINT rclavicle
				{
					OFFSET -0.082954 0.112472 -0.023707
					CHANNELS 3 Zrotation Yrotation Xrotation
					JOINT rshoulder
					{
						OFFSET -0.113228 0.046853 -0.008472
						CHANNELS 3 Zrotation Yrotation Xrotation
						JOINT relbow
						{
							OFFSET -0.260127 -0.014369 -0.031269
							CHANNELS 3 Zrotation Yrotation Xrotation
							JOINT rwrist
							{
								OFFSET -0.269108 0.006794 -0.006027
								CHANNELS 3 Zrotation Yrotation Xrotation
								End Site
								{
									OFFSET 0.000000 0.000000 0.000000
								}
							}
						}
					}
				}
			}
		}
	}
}
MOTION
Frames: 8
Frame Time: 0.033333
0.578026 0.384613 0.990373 92.182665 -1.713826 85.258506 0.559322 -7.614288 -11.103868 -3.450314 -0.739233 13.336872 3.007267 5.434357 -5.835870 0.000000 -0.000000 0.000000 -3.184826 -3.366029 -5.182663 -0.709009 0.595448 52.199135 3.237675 -9.993024 3.282158 0.000000 -0.000000 0.000000 0.408334 4.292623 4.980878 -5.460115 1.515867 0.801008 -3.457800 1.239319 -0.538371 -8.767579 27.026055 0.225833 -7.553964 39.162526 -0.315754 -21.312289 -6.273997 -7.634099 -51.921479 -24.250994 6.509280 38.265019 -45.230426 -39.756468 9.234033 -12.222442 -40.793952 5.938435 -3.457180 -5.278194 22.417786 12.085392 -5.519060 -85.537235 42.705251 -78.275032 -8.763193 15.289418 -21.142726 
0.605653 0.393188 0.993682 93.042086 -1.413484 84.924547 -0.307903 -7.479348 -9.088281 -3.322890 -1.611016 13.752842 4.308845 6.059773 -7.406056 0.000000 -0.000000 0.000000 -3.628324 -3.581918 -8.742479 -1.753470 -2.057089 57.785129 2.608549 -12.581138 2.465235 0.000000 -0.000000 0.000000 0.355570 3.429181 4.710254 -4.759097 1.462621 0.808388 -3.288420 0.729777 -0.064411 -8.117204 26.533020 1.008960 -8.443594 38.691679 0.229247 -22.012112 -6.050164 -6.287978 -52.314449 -23.939763 6.953406 37.058385 -45.999818 -37.034312 9.781847 -11.697072 -39.094002 7.141110 -2.579232 -4.458269 22.630227 13.124321 -4.213064 -82.450904 44.480342 -74.385771 -8.701672 15.078316 -21.135470 
0.633003 0.401006 0.997402 93.303330 -1.181967 84.387290 -1.157860 -7.019223 -6.201395 -3.139047 -3.158908 12.940278 5.243042 7.257954 -8.791372 0.000000 -0.000000 0.000000 -4.067541 -3.711792 -11.969124 -2.912026 -4.033066 61.063799 1.986822 -13.550440 0.657101 0.000000 -0.000000 0.000000 0.645187 2.751031 5.125444 -4.561542 1.833157 0.417162 -3.202856 0.611756 0.612475 -7.884372 26.492264 0.792781 -8.642946 37.622712 0.933594 -22.305846 -6.081348 -5.747112 -52.955914 -23.541185 7.991119 35.236597 -47.088576 -35.643378 11.092541 -12.221344 -38.205893 8.070601 -2.069516 -4.027411 23.641393 13.290421 -2.857246 -79.378472 46.187171 -72.236568 -9.074440 14.522686 -20.006923 
0.658235 0.407038 1.000262 93.599563 -0.953545 84.335190 -1.539215 -7.206247 -3.884910 -3.040194 -4.120444 11.917955 6.079248 8.166398 -9.881594 0.000000 -0.000000 0.000000 -4.376132 -3.227374 -15.645517 -2.753919 -5.551105 62.243400 2.193821 -14.048351 -0.095880 0.000000 -0.000000 0.000000 0.741247 2.136131 5.704511 -4.332778 2.383527 -0.207916 -3.183681 0.401336 1.123375 -7.613931 26.680772 -0.305283 -8.883019 36.475150 1.834048 -22.495273 -5.483774 -5.354003 -54.191138 -23.993946 9.285226 34.468715 -48.504240 -34.266061 11.340479 -12.804540 -38.462484 9.360511 -2.460256 -3.536610 24.904662 13.453852 -1.135619 -78.639300 47.346910 -71.169433 -10.699305 14.756008 -20.597518 
0.683740 0.411101 1.002178 94.300311 -0.283815 84.270464 -1.276035 -5.548260 -1.882618 -3.011355 -5.423852 11.293072 5.816278 7.681001 -11.282654 0.000000 -0.000000 0.000000 -4.013361 -2.947037 -18.749104 -2.200575 -6.940432 60.852460 2.266732 -13.615063 -2.326234 0.000000 -0.000000 0.000000 1.143181 0.978694 6.528463 -4.055700 2.834059 -0.911297 -2.955438 0.283972 1.813236 -8.064444 27.315938 -1.956930 -9.604633 35.022674 2.223411 -22.579330 -4.553519 -5.958159 -55.822811 -24.230333 10.368706 34.005676 -50.380326 -32.677718 11.386480 -13.324931 -38.468675 10.775556 -3.278240 -3.439454 25.916633 13.641535 -0.222176 -79.683345 49.731966 -71.840065 -11.187524 14.101178 -21.021912 
0.709388 0.413824 1.002763 95.008128 0.198500 84.167610 -1.008160 -4.606858 0.338848 -2.933832 -6.514273 10.409771 5.798444 7.231869 -12.449820 0.000000 -0.000000 0.000000 -3.979249 -2.677691 -21.353867 -1.866572 -8.222180 57.406771 3.578031 -11.804831 -5.097615 0.000000 -0.000000 0.000000 1.250448 0.340399 7.402187 -3.655594 2.835324 -1.208142 -2.775328 0.067965 1.815776 -8.069349 28.243649 -2.857971 -10.239027 34.020792 2.522021 -22.733177 -4.107141 -5.529278 -56.580693 -24.757756 10.573218 35.450643 -51.888550 -31.935839 8.331522 -14.084772 -37.286927 12.154588 -4.024440 -3.021129 27.113573 13.937721 0.085020 -81.121658 51.877830 -71.123740 -9.856495 15.052409 -21.498502 
0.734957 0.415899 1.002749 96.252428 1.132242 83.926066 0.106746 -2.662834 2.463214 -3.149216 -9.061364 9.893793 6.018449 6.511176 -13.727054 0.000000 -0.000000 0.000000 -3.362522 -3.064811 -22.525043 -1.584970 -9.491036 50.937776 4.225870 -11.061116 -7.434233 0.000000 -0.000000 0.000000 2.114393 -0.707329 8.355857 -3.315209 2.531650 -0.859679 -2.798344 -0.622152 2.082432 -8.861258 28.627836 -4.780222 -11.267100 34.819029 2.134825 -23.276833 -3.594293 -6.199999 -56.117455 -25.049698 10.872747 36.451303 -54.289098 -30.460368 12.417434 -13.756375 -38.424655 13.216322 -4.568118 -3.741790 29.570621 14.266444 3.520209 -83.612120 51.508717 -72.374587 -6.564198 16.081574 -19.900188 
0.759224 0.416700 1.001420 97.515410 1.468063 84.257264 0.700585 -2.577553 3.584730 -3.409845 -9.841653 10.065036 5.525602 6.079603 -15.209304 0.000000 -0.000000 0.000000 -3.291687 -2.835365 -23.622284 -1.783648 -11.244637 42.747334 4.625372 -11.441536 -8.300361 0.000000 -0.000000 0.000000 2.151246 -1.412649 9.331808 -3.255346 2.095299 -1.405288 -2.533772 -0.907003 2.341864 -9.215163 29.808931 -6.110025 -11.087983 34.545770 2.701807 -22.745503 -3.388824 -6.408307 -56.747740 -26.165416 11.105186 38.946302 -55.414374 -32.045230 12.955110 -14.161872 -38.626415 14.019289 -5.199692 -3.610639 31.522072 14.062462 5.010566 -85.102757 53.665278 -72.421408 -6.335554 16.313460 -19.763073 
